<mxfile host="app.diagrams.net" modified="2024-05-24T03:21:21.369Z" agent="Mozilla/5.0 (Macintosh; Intel Mac OS X 10_15_7) AppleWebKit/537.36 (KHTML, like Gecko) Chrome/125.0.0.0 Safari/537.36" etag="gyC_D86UdNNfwuC5hJvn" version="24.4.4" type="github">
  <diagram id="C5RBs43oDa-KdzZeNtuy" name="Page-1">
    <mxGraphModel dx="1434" dy="761" grid="1" gridSize="10" guides="1" tooltips="1" connect="1" arrows="1" fold="1" page="1" pageScale="1" pageWidth="827" pageHeight="1169" math="0" shadow="0">
      <root>
        <mxCell id="WIyWlLk6GJQsqaUBKTNV-0" />
        <mxCell id="WIyWlLk6GJQsqaUBKTNV-1" parent="WIyWlLk6GJQsqaUBKTNV-0" />
        <mxCell id="z2VaklTYjahulCSY6gSa-2" value="用户提问" style="strokeWidth=2;html=1;shape=mxgraph.flowchart.start_1;whiteSpace=wrap;" vertex="1" parent="WIyWlLk6GJQsqaUBKTNV-1">
          <mxGeometry x="160" y="40" width="100" height="60" as="geometry" />
        </mxCell>
        <mxCell id="z2VaklTYjahulCSY6gSa-5" value="" style="edgeStyle=orthogonalEdgeStyle;rounded=0;orthogonalLoop=1;jettySize=auto;html=1;" edge="1" parent="WIyWlLk6GJQsqaUBKTNV-1" source="z2VaklTYjahulCSY6gSa-3" target="z2VaklTYjahulCSY6gSa-4">
          <mxGeometry relative="1" as="geometry" />
        </mxCell>
        <mxCell id="z2VaklTYjahulCSY6gSa-3" value="大佬开始表演" style="strokeWidth=2;html=1;shape=mxgraph.flowchart.start_1;whiteSpace=wrap;" vertex="1" parent="WIyWlLk6GJQsqaUBKTNV-1">
          <mxGeometry x="530" y="40" width="100" height="60" as="geometry" />
        </mxCell>
        <mxCell id="z2VaklTYjahulCSY6gSa-7" value="" style="edgeStyle=orthogonalEdgeStyle;rounded=0;orthogonalLoop=1;jettySize=auto;html=1;" edge="1" parent="WIyWlLk6GJQsqaUBKTNV-1" source="z2VaklTYjahulCSY6gSa-4" target="z2VaklTYjahulCSY6gSa-6">
          <mxGeometry relative="1" as="geometry" />
        </mxCell>
        <mxCell id="z2VaklTYjahulCSY6gSa-4" value="搜索经典问题库找到大佬需要回答的问题" style="rounded=1;whiteSpace=wrap;html=1;strokeWidth=2;" vertex="1" parent="WIyWlLk6GJQsqaUBKTNV-1">
          <mxGeometry x="520" y="180" width="120" height="60" as="geometry" />
        </mxCell>
        <mxCell id="z2VaklTYjahulCSY6gSa-9" value="" style="edgeStyle=orthogonalEdgeStyle;rounded=0;orthogonalLoop=1;jettySize=auto;html=1;" edge="1" parent="WIyWlLk6GJQsqaUBKTNV-1" source="z2VaklTYjahulCSY6gSa-6" target="z2VaklTYjahulCSY6gSa-8">
          <mxGeometry relative="1" as="geometry" />
        </mxCell>
        <mxCell id="z2VaklTYjahulCSY6gSa-6" value="llm将问题拆解成多个子问题" style="whiteSpace=wrap;html=1;rounded=1;strokeWidth=2;" vertex="1" parent="WIyWlLk6GJQsqaUBKTNV-1">
          <mxGeometry x="520" y="320" width="120" height="60" as="geometry" />
        </mxCell>
        <mxCell id="z2VaklTYjahulCSY6gSa-11" value="" style="edgeStyle=orthogonalEdgeStyle;rounded=0;orthogonalLoop=1;jettySize=auto;html=1;" edge="1" parent="WIyWlLk6GJQsqaUBKTNV-1" source="z2VaklTYjahulCSY6gSa-8" target="z2VaklTYjahulCSY6gSa-10">
          <mxGeometry relative="1" as="geometry" />
        </mxCell>
        <mxCell id="z2VaklTYjahulCSY6gSa-8" value="提问子问题" style="whiteSpace=wrap;html=1;rounded=1;strokeWidth=2;" vertex="1" parent="WIyWlLk6GJQsqaUBKTNV-1">
          <mxGeometry x="520" y="460" width="120" height="60" as="geometry" />
        </mxCell>
        <mxCell id="z2VaklTYjahulCSY6gSa-13" value="" style="edgeStyle=orthogonalEdgeStyle;rounded=0;orthogonalLoop=1;jettySize=auto;html=1;" edge="1" parent="WIyWlLk6GJQsqaUBKTNV-1" source="z2VaklTYjahulCSY6gSa-10" target="z2VaklTYjahulCSY6gSa-12">
          <mxGeometry relative="1" as="geometry" />
        </mxCell>
        <mxCell id="z2VaklTYjahulCSY6gSa-10" value="大佬回答子问题" style="whiteSpace=wrap;html=1;rounded=1;strokeWidth=2;" vertex="1" parent="WIyWlLk6GJQsqaUBKTNV-1">
          <mxGeometry x="520" y="600" width="120" height="60" as="geometry" />
        </mxCell>
        <mxCell id="z2VaklTYjahulCSY6gSa-16" value="" style="edgeStyle=orthogonalEdgeStyle;rounded=0;orthogonalLoop=1;jettySize=auto;html=1;" edge="1" parent="WIyWlLk6GJQsqaUBKTNV-1" source="z2VaklTYjahulCSY6gSa-12" target="z2VaklTYjahulCSY6gSa-15">
          <mxGeometry relative="1" as="geometry" />
        </mxCell>
        <mxCell id="z2VaklTYjahulCSY6gSa-12" value="llm评估答案是否可以解决子问题" style="whiteSpace=wrap;html=1;rounded=1;strokeWidth=2;" vertex="1" parent="WIyWlLk6GJQsqaUBKTNV-1">
          <mxGeometry x="520" y="740" width="120" height="60" as="geometry" />
        </mxCell>
        <mxCell id="z2VaklTYjahulCSY6gSa-18" value="" style="edgeStyle=orthogonalEdgeStyle;rounded=0;orthogonalLoop=1;jettySize=auto;html=1;" edge="1" parent="WIyWlLk6GJQsqaUBKTNV-1" source="z2VaklTYjahulCSY6gSa-15" target="z2VaklTYjahulCSY6gSa-17">
          <mxGeometry relative="1" as="geometry" />
        </mxCell>
        <mxCell id="z2VaklTYjahulCSY6gSa-19" value="Yes" style="edgeLabel;html=1;align=center;verticalAlign=middle;resizable=0;points=[];" vertex="1" connectable="0" parent="z2VaklTYjahulCSY6gSa-18">
          <mxGeometry x="-0.2444" y="1" relative="1" as="geometry">
            <mxPoint as="offset" />
          </mxGeometry>
        </mxCell>
        <mxCell id="z2VaklTYjahulCSY6gSa-21" value="" style="edgeStyle=orthogonalEdgeStyle;rounded=0;orthogonalLoop=1;jettySize=auto;html=1;entryX=1;entryY=0.5;entryDx=0;entryDy=0;" edge="1" parent="WIyWlLk6GJQsqaUBKTNV-1" source="z2VaklTYjahulCSY6gSa-15" target="z2VaklTYjahulCSY6gSa-10">
          <mxGeometry relative="1" as="geometry">
            <mxPoint x="707" y="910" as="targetPoint" />
            <Array as="points">
              <mxPoint x="720" y="910" />
              <mxPoint x="720" y="630" />
            </Array>
          </mxGeometry>
        </mxCell>
        <mxCell id="z2VaklTYjahulCSY6gSa-22" value="No" style="edgeLabel;html=1;align=center;verticalAlign=middle;resizable=0;points=[];" vertex="1" connectable="0" parent="z2VaklTYjahulCSY6gSa-21">
          <mxGeometry x="-0.6667" y="-1" relative="1" as="geometry">
            <mxPoint x="-27" y="-1" as="offset" />
          </mxGeometry>
        </mxCell>
        <mxCell id="z2VaklTYjahulCSY6gSa-15" value="是否解决" style="rhombus;whiteSpace=wrap;html=1;rounded=1;strokeWidth=2;" vertex="1" parent="WIyWlLk6GJQsqaUBKTNV-1">
          <mxGeometry x="540" y="870" width="80" height="80" as="geometry" />
        </mxCell>
        <mxCell id="z2VaklTYjahulCSY6gSa-24" value="" style="edgeStyle=orthogonalEdgeStyle;rounded=0;orthogonalLoop=1;jettySize=auto;html=1;" edge="1" parent="WIyWlLk6GJQsqaUBKTNV-1" source="z2VaklTYjahulCSY6gSa-17" target="z2VaklTYjahulCSY6gSa-23">
          <mxGeometry relative="1" as="geometry" />
        </mxCell>
        <mxCell id="z2VaklTYjahulCSY6gSa-17" value="1.子问题存入MySQL，生成问题id&lt;div&gt;2.子问题存入Chroma，问题id作为&amp;nbsp; &amp;nbsp; &amp;nbsp; &amp;nbsp;filter属性；&lt;div&gt;3. 答案存入MySQL，与问题id关联&lt;/div&gt;&lt;/div&gt;" style="whiteSpace=wrap;html=1;rounded=1;strokeWidth=2;align=left;" vertex="1" parent="WIyWlLk6GJQsqaUBKTNV-1">
          <mxGeometry x="480" y="1020" width="200" height="80" as="geometry" />
        </mxCell>
        <mxCell id="z2VaklTYjahulCSY6gSa-23" value="子问题是否全部回答" style="rhombus;whiteSpace=wrap;html=1;align=center;rounded=1;strokeWidth=2;" vertex="1" parent="WIyWlLk6GJQsqaUBKTNV-1">
          <mxGeometry x="515" y="1180" width="130" height="100" as="geometry" />
        </mxCell>
      </root>
    </mxGraphModel>
  </diagram>
</mxfile>
